<svg width="225" height="113" viewBox="0 0 225 113" fill="none" xmlns="http://www.w3.org/2000/svg">
<g clip-path="url(#clip0_2_195)">
<path d="M27.3 53.6C22.0984 53.6 17.0135 52.0575 12.6885 49.1677C8.3635 46.2778 4.99256 42.1703 3.00198 37.3646C1.0114 32.5589 0.490568 27.2708 1.50536 22.1691C2.52015 17.0674 5.02498 12.3812 8.7031 8.7031C12.3812 5.02498 17.0674 2.52015 22.1691 1.50536C27.2708 0.490568 32.5589 1.0114 37.3646 3.00198C42.1703 4.99256 46.2778 8.3635 49.1677 12.6885C52.0575 17.0135 53.6 22.0984 53.6 27.3C53.5921 34.2728 50.8186 40.9577 45.8881 45.8881C40.9577 50.8186 34.2728 53.5921 27.3 53.6Z" fill="#2C2C2C"/>
<path d="M27.3 2C32.3039 2 37.1954 3.48382 41.3559 6.26382C45.5165 9.04382 48.7593 12.9951 50.6742 17.6181C52.5891 22.2411 53.0901 27.3281 52.1139 32.2358C51.1377 37.1435 48.7281 41.6515 45.1898 45.1898C41.6515 48.7281 37.1435 51.1377 32.2358 52.1139C27.3281 53.0901 22.2411 52.589 17.6181 50.6742C12.9951 48.7593 9.04383 45.5165 6.26383 41.3559C3.48383 37.1954 2.00001 32.3039 2.00001 27.3C2.00795 20.5925 4.67603 14.1619 9.41898 9.41897C14.1619 4.67602 20.5925 2.00794 27.3 2ZM27.3 0C21.9006 0 16.6224 1.60112 12.1329 4.60088C7.64348 7.60064 4.14437 11.8643 2.0781 16.8527C0.0118287 21.8412 -0.528802 27.3303 0.524574 32.626C1.57795 37.9216 4.17802 42.786 7.996 46.604C11.814 50.422 16.6784 53.0221 21.974 54.0754C27.2697 55.1288 32.7588 54.5882 37.7473 52.5219C42.7357 50.4556 46.9994 46.9565 49.9991 42.4671C52.9989 37.9776 54.6 32.6994 54.6 27.3C54.5894 20.0628 51.7098 13.1251 46.5923 8.00767C41.4749 2.89022 34.5372 0.0105807 27.3 0Z" fill="#222222"/>
<path d="M41.7 14.9L39.7 12.9L27.3 25.3L14.9 12.9L12.9 14.9L25.3 27.3L12.9 39.7L14.9 41.7L27.3 29.3L39.7 41.7L41.7 39.7L29.3 27.3L41.7 14.9Z" fill="white"/>
<path d="M83.8 53.5C78.5899 53.5198 73.4913 51.9916 69.151 49.1093C64.8107 46.2271 61.4242 42.1206 59.4213 37.3109C57.4183 32.5011 56.889 27.2048 57.9006 22.0938C58.9123 16.9828 61.4191 12.2874 65.1032 8.60328C68.7874 4.91915 73.4828 2.41228 78.5938 1.40068C83.7048 0.389079 89.0011 0.918331 93.8108 2.9213C98.6206 4.92427 102.727 8.31069 105.609 12.651C108.492 16.9913 110.02 22.0899 110 27.3C109.966 34.2381 107.194 40.8824 102.288 45.7884C97.3823 50.6945 90.7381 53.4658 83.8 53.5Z" fill="#2C2C2C"/>
<path d="M83.8 2.10001C88.8038 2.10001 93.6953 3.58382 97.8559 6.36382C102.016 9.14382 105.259 13.0951 107.174 17.7181C109.089 22.3411 109.59 27.4281 108.614 32.3358C107.638 37.2435 105.228 41.7515 101.69 45.2898C98.1515 48.8281 93.6435 51.2377 88.7358 52.2139C83.828 53.1901 78.7411 52.6891 74.1181 50.7742C69.4951 48.8593 65.5438 45.6165 62.7638 41.4559C59.9838 37.2954 58.5 32.4039 58.5 27.4C58.5079 20.6925 61.176 14.2619 65.9189 9.51897C70.6619 4.77602 77.0924 2.10794 83.8 2.10001ZM83.8 0.100006C78.3921 0.0802324 73.1001 1.66705 68.5954 4.6592C64.0906 7.65134 60.576 11.914 58.4974 16.9065C56.4187 21.899 55.8697 27.3963 56.9199 32.7013C57.97 38.0063 60.5722 42.8799 64.3961 46.7038C68.2201 50.5278 73.0937 53.1299 78.3987 54.1801C83.7037 55.2303 89.201 54.6812 94.1935 52.6026C99.186 50.5239 103.449 47.0093 106.441 42.5046C109.433 37.9998 111.02 32.7079 111 27.3C110.963 20.0975 108.086 13.2004 102.993 8.10735C97.8996 3.01431 91.0025 0.136794 83.8 0.100006Z" fill="#222222"/>
<path d="M83.8 8.39999C80.0619 8.39999 76.4078 9.50846 73.2997 11.5852C70.1916 13.662 67.7691 16.6138 66.3386 20.0673C64.9082 23.5208 64.5339 27.321 65.2631 30.9872C65.9924 34.6534 67.7924 38.0211 70.4357 40.6643C73.0789 43.3075 76.4465 45.1076 80.1128 45.8368C83.779 46.5661 87.5792 46.1918 91.0327 44.7613C94.4862 43.3308 97.438 40.9084 99.5147 37.8003C101.592 34.6922 102.7 31.0381 102.7 27.3C102.687 22.2915 100.691 17.4918 97.1497 13.9503C93.6081 10.4087 88.8085 8.41319 83.8 8.39999ZM83.8 43.3C80.6355 43.3 77.542 42.3616 74.9108 40.6035C72.2797 38.8454 70.2289 36.3465 69.0179 33.4229C67.8069 30.4993 67.49 27.2822 68.1074 24.1785C68.7248 21.0749 70.2486 18.2239 72.4863 15.9863C74.7239 13.7486 77.5748 12.2248 80.6785 11.6074C83.7822 10.9901 86.9993 11.3069 89.9229 12.5179C92.8465 13.7289 95.3454 15.7797 97.1035 18.4109C98.8616 21.0421 99.8 24.1355 99.8 27.3C99.8 31.5435 98.1143 35.6131 95.1137 38.6137C92.1131 41.6143 88.0434 43.3 83.8 43.3Z" fill="white"/>
<path d="M140.3 54.1C135.098 54.1 130.014 52.5575 125.689 49.6677C121.363 46.7778 117.993 42.6703 116.002 37.8646C114.011 33.0589 113.491 27.7708 114.505 22.6691C115.52 17.5674 118.025 12.8812 121.703 9.2031C125.381 5.52498 130.067 3.02015 135.169 2.00536C140.271 0.990568 145.559 1.5114 150.365 3.50198C155.17 5.49257 159.278 8.8635 162.168 13.1885C165.058 17.5135 166.6 22.5984 166.6 27.8C166.592 34.7728 163.819 41.4577 158.888 46.3881C153.958 51.3186 147.273 54.0921 140.3 54.1Z" fill="#2C2C2C"/>
<path d="M140.3 2.70001C145.304 2.70001 150.195 4.18383 154.356 6.96383C158.517 9.74383 161.759 13.6952 163.674 18.3181C165.589 22.9411 166.09 28.0281 165.114 32.9358C164.138 37.8435 161.728 42.3515 158.19 45.8898C154.652 49.4281 150.144 51.8377 145.236 52.8139C140.328 53.7901 135.241 53.2891 130.618 51.3742C125.995 49.4593 122.044 46.2165 119.264 42.0559C116.484 37.8954 115 33.0039 115 28C115.008 21.2925 117.676 14.8619 122.419 10.119C127.162 5.37603 133.592 2.70795 140.3 2.70001ZM140.3 0.700012C134.901 0.700012 129.622 2.30113 125.133 5.30089C120.643 8.30065 117.144 12.5643 115.078 17.5528C113.012 22.5412 112.471 28.0303 113.525 33.326C114.578 38.6217 117.178 43.4861 120.996 47.304C124.814 51.122 129.678 53.7221 134.974 54.7754C140.27 55.8288 145.759 55.2882 150.747 53.2219C155.736 51.1557 159.999 47.6565 162.999 43.1671C165.999 38.6776 167.6 33.3994 167.6 28C167.589 20.7629 164.71 13.8251 159.592 8.70768C154.475 3.59023 147.537 0.710593 140.3 0.700012Z" fill="#222222"/>
<path d="M151.8 13.5H126V42.1H154.6V13.5H151.8ZM151.8 39.4H128.8V16.4H151.8V39.4Z" fill="white"/>
<path d="M196.8 54.8C191.598 54.8 186.514 53.2575 182.189 50.3676C177.864 47.4778 174.493 43.3703 172.502 38.5646C170.511 33.7589 169.991 28.4708 171.005 23.3691C172.02 18.2674 174.525 13.5812 178.203 9.90309C181.881 6.22496 186.567 3.72013 191.669 2.70534C196.771 1.69055 202.059 2.21138 206.865 4.20196C211.67 6.19255 215.778 9.56348 218.668 13.8885C221.558 18.2135 223.1 23.2983 223.1 28.5C223.092 35.4728 220.319 42.1576 215.388 47.0881C210.458 52.0186 203.773 54.7921 196.8 54.8Z" fill="#2C2C2C"/>
<path d="M196.8 3.29999C201.804 3.29999 206.695 4.78381 210.856 7.56381C215.016 10.3438 218.259 14.2951 220.174 18.9181C222.089 23.5411 222.59 28.6281 221.614 33.5358C220.638 38.4435 218.228 42.9515 214.69 46.4898C211.152 50.0281 206.644 52.4377 201.736 53.4139C196.828 54.3901 191.741 53.889 187.118 51.9741C182.495 50.0592 178.544 46.8165 175.764 42.6559C172.984 38.4954 171.5 33.6039 171.5 28.6C171.508 21.8924 174.176 15.4619 178.919 10.719C183.662 5.976 190.092 3.30793 196.8 3.29999ZM196.8 1.29999C191.401 1.29999 186.122 2.9011 181.633 5.90087C177.143 8.90063 173.644 13.1643 171.578 18.1527C169.512 23.1412 168.971 28.6303 170.025 33.926C171.078 39.2216 173.678 44.086 177.496 47.904C181.314 51.722 186.178 54.3221 191.474 55.3754C196.77 56.4288 202.259 55.8882 207.247 53.8219C212.236 51.7556 216.499 48.2565 219.499 43.7671C222.499 39.2776 224.1 33.9994 224.1 28.6C224.089 21.3628 221.21 14.4251 216.092 9.30766C210.975 4.19021 204.037 1.31057 196.8 1.29999Z" fill="#222222"/>
<path d="M212.8 36.6L196.8 9L180.8 36.6L179.2 39.4H214.4L212.8 36.6ZM196.8 36.6H184.1L196.8 14.7L209.5 36.6H196.8Z" fill="white"/>
<path d="M27.3 111.4C22.0984 111.4 17.0135 109.858 12.6885 106.968C8.3635 104.078 4.99256 99.9703 3.00198 95.1646C1.0114 90.3589 0.490568 85.0708 1.50536 79.9691C2.52015 74.8674 5.02498 70.1812 8.7031 66.5031C12.3812 62.825 17.0674 60.3201 22.1691 59.3053C27.2708 58.2906 32.5589 58.8114 37.3646 60.802C42.1703 62.7926 46.2778 66.1635 49.1677 70.4885C52.0575 74.8135 53.6 79.8983 53.6 85.1C53.5921 92.0728 50.8186 98.7577 45.8881 103.688C40.9577 108.619 34.2728 111.392 27.3 111.4Z" fill="#D3D3D3"/>
<path d="M27.3 59.8C32.3039 59.8 37.1954 61.2838 41.3559 64.0638C45.5165 66.8438 48.7593 70.7951 50.6742 75.4181C52.5891 80.0411 53.0901 85.1281 52.1139 90.0358C51.1377 94.9435 48.7281 99.4515 45.1898 102.99C41.6515 106.528 37.1435 108.938 32.2358 109.914C27.3281 110.89 22.2411 110.389 17.6181 108.474C12.9951 106.559 9.04383 103.316 6.26383 99.1559C3.48383 94.9954 2.00001 90.1039 2.00001 85.1C2.00795 78.3924 4.67603 71.9619 9.41898 67.219C14.1619 62.476 20.5925 59.8079 27.3 59.8ZM27.3 57.8C21.9006 57.8 16.6224 59.4011 12.1329 62.4009C7.64348 65.4006 4.14437 69.6643 2.0781 74.6527C0.0118287 79.6412 -0.528802 85.1303 0.524574 90.426C1.57795 95.7216 4.17802 100.586 7.996 104.404C11.814 108.222 16.6784 110.822 21.974 111.875C27.2697 112.929 32.7588 112.388 37.7473 110.322C42.7357 108.256 46.9994 104.757 49.9991 100.267C52.9989 95.7776 54.6 90.4994 54.6 85.1C54.5894 77.8628 51.7098 70.9251 46.5923 65.8077C41.4749 60.6902 34.5372 57.8106 27.3 57.8Z" fill="#DDDDDD"/>
<path d="M41.7 72.7L39.7 70.7L27.3 83.1L14.9 70.7L12.9 72.7L25.3 85.1L12.9 97.5L14.9 99.5L27.3 87.1L39.7 99.5L41.7 97.5L29.3 85.1L41.7 72.7Z" fill="black"/>
<path d="M83.8 111.2C78.5984 111.2 73.5135 109.658 69.1885 106.768C64.8635 103.878 61.4926 99.7703 59.502 94.9646C57.5114 90.1589 56.9906 84.8708 58.0054 79.7691C59.0202 74.6674 61.525 69.9812 65.2031 66.3031C68.8812 62.625 73.5674 60.1201 78.6691 59.1053C83.7708 58.0905 89.0589 58.6114 93.8646 60.602C98.6703 62.5925 102.778 65.9635 105.668 70.2885C108.558 74.6135 110.1 79.6983 110.1 84.9C110.092 91.8727 107.319 98.5576 102.388 103.488C97.4577 108.419 90.7728 111.192 83.8 111.2Z" fill="#D3D3D3"/>
<path d="M83.8 59.8C88.8039 59.8 93.6954 61.2838 97.8559 64.0638C102.017 66.8438 105.259 70.7951 107.174 75.4181C109.089 80.0411 109.59 85.1281 108.614 90.0358C107.638 94.9435 105.228 99.4515 101.69 102.99C98.1515 106.528 93.6435 108.938 88.7358 109.914C83.8281 110.89 78.7411 110.389 74.1181 108.474C69.4952 106.559 65.5438 103.316 62.7638 99.1559C59.9838 94.9954 58.5 90.1039 58.5 85.1C58.508 78.3924 61.176 71.9619 65.919 67.219C70.6619 62.476 77.0925 59.8079 83.8 59.8ZM83.8 57.8C78.4006 57.8 73.1224 59.4011 68.6329 62.4009C64.1435 65.4006 60.6444 69.6643 58.5781 74.6527C56.5118 79.6412 55.9712 85.1303 57.0246 90.426C58.078 95.7216 60.678 100.586 64.496 104.404C68.314 108.222 73.1784 110.822 78.474 111.875C83.7697 112.929 89.2588 112.388 94.2473 110.322C99.2357 108.256 103.499 104.757 106.499 100.267C109.499 95.7776 111.1 90.4994 111.1 85.1C111.089 77.8628 108.21 70.9251 103.092 65.8077C97.9749 60.6902 91.0372 57.8106 83.8 57.8Z" fill="#DDDDDD"/>
<path d="M83.8 66.1C80.062 66.1 76.4078 67.2084 73.2998 69.2852C70.1917 71.362 67.7692 74.3137 66.3387 77.7673C64.9082 81.2208 64.5339 85.0209 65.2632 88.6872C65.9925 92.3534 67.7925 95.7211 70.4357 98.3643C73.0789 101.008 76.4466 102.808 80.1128 103.537C83.7791 104.266 87.5792 103.892 91.0327 102.461C94.4863 101.031 97.4381 98.6083 99.5148 95.5003C101.592 92.3922 102.7 88.738 102.7 85C102.687 79.9914 100.691 75.1918 97.1498 71.6502C93.6082 68.1087 88.8086 66.1132 83.8 66.1ZM83.8 101C80.6355 101 77.5421 100.062 74.9109 98.3035C72.2797 96.5454 70.229 94.0465 69.018 91.1229C67.807 88.1993 67.4901 84.9822 68.1075 81.8785C68.7248 78.7748 70.2487 75.9239 72.4863 73.6863C74.724 71.4486 77.5749 69.9248 80.6786 69.3074C83.7823 68.69 86.9993 69.0069 89.923 70.2179C92.8466 71.4289 95.3454 73.4797 97.1035 76.1109C98.8616 78.742 99.8 81.8355 99.8 85C99.8 89.2434 98.1143 93.3131 95.1137 96.3137C92.1132 99.3143 88.0435 101 83.8 101Z" fill="black"/>
<path d="M140.3 111.2C135.098 111.2 130.014 109.658 125.689 106.768C121.363 103.878 117.993 99.7703 116.002 94.9646C114.011 90.1589 113.491 84.8708 114.505 79.7691C115.52 74.6674 118.025 69.9812 121.703 66.3031C125.381 62.625 130.067 60.1201 135.169 59.1053C140.271 58.0905 145.559 58.6114 150.365 60.602C155.17 62.5925 159.278 65.9635 162.168 70.2885C165.058 74.6135 166.6 79.6983 166.6 84.9C166.592 91.8727 163.819 98.5576 158.888 103.488C153.958 108.419 147.273 111.192 140.3 111.2Z" fill="#D3D3D3"/>
<path d="M140.3 59.8C145.304 59.8 150.195 61.2838 154.356 64.0638C158.517 66.8438 161.759 70.7951 163.674 75.4181C165.589 80.0411 166.09 85.1281 165.114 90.0358C164.138 94.9435 161.728 99.4515 158.19 102.99C154.652 106.528 150.144 108.938 145.236 109.914C140.328 110.89 135.241 110.389 130.618 108.474C125.995 106.559 122.044 103.316 119.264 99.1559C116.484 94.9954 115 90.1039 115 85.1C115.008 78.3924 117.676 71.9619 122.419 67.219C127.162 62.476 133.592 59.8079 140.3 59.8ZM140.3 57.8C134.901 57.8 129.622 59.4011 125.133 62.4009C120.643 65.4006 117.144 69.6643 115.078 74.6527C113.012 79.6412 112.471 85.1303 113.525 90.426C114.578 95.7216 117.178 100.586 120.996 104.404C124.814 108.222 129.678 110.822 134.974 111.875C140.27 112.929 145.759 112.388 150.747 110.322C155.736 108.256 159.999 104.757 162.999 100.267C165.999 95.7776 167.6 90.4994 167.6 85.1C167.589 77.8628 164.71 70.9251 159.592 65.8077C154.475 60.6902 147.537 57.8106 140.3 57.8Z" fill="#DDDDDD"/>
<path d="M151.8 70.6H126V99.2H154.6V70.6H151.8ZM151.8 96.5H128.8V73.5H151.8V96.5Z" fill="black"/>
<path d="M196.8 111.3C191.598 111.3 186.514 109.758 182.189 106.868C177.864 103.978 174.493 99.8703 172.502 95.0646C170.511 90.2589 169.991 84.9708 171.005 79.8691C172.02 74.7674 174.525 70.0812 178.203 66.4031C181.881 62.725 186.567 60.2201 191.669 59.2053C196.771 58.1905 202.059 58.7114 206.865 60.702C211.67 62.6925 215.778 66.0635 218.668 70.3885C221.558 74.7135 223.1 79.7983 223.1 85C223.092 91.9727 220.319 98.6576 215.388 103.588C210.458 108.519 203.773 111.292 196.8 111.3Z" fill="#D3D3D3"/>
<path d="M196.8 59.8C201.804 59.8 206.695 61.2838 210.856 64.0638C215.016 66.8438 218.259 70.7951 220.174 75.4181C222.089 80.0411 222.59 85.1281 221.614 90.0358C220.638 94.9435 218.228 99.4515 214.69 102.99C211.152 106.528 206.644 108.938 201.736 109.914C196.828 110.89 191.741 110.389 187.118 108.474C182.495 106.559 178.544 103.316 175.764 99.1559C172.984 94.9954 171.5 90.1039 171.5 85.1C171.508 78.3924 174.176 71.9619 178.919 67.219C183.662 62.476 190.092 59.8079 196.8 59.8ZM196.8 57.8C191.401 57.8 186.122 59.4011 181.633 62.4009C177.143 65.4006 173.644 69.6643 171.578 74.6527C169.512 79.6412 168.971 85.1303 170.025 90.426C171.078 95.7216 173.678 100.586 177.496 104.404C181.314 108.222 186.178 110.822 191.474 111.875C196.77 112.929 202.259 112.388 207.247 110.322C212.236 108.256 216.499 104.757 219.499 100.267C222.499 95.7776 224.1 90.4994 224.1 85.1C224.089 77.8628 221.21 70.9251 216.092 65.8077C210.975 60.6902 204.037 57.8106 196.8 57.8Z" fill="#DDDDDD"/>
<path d="M212.8 93L196.8 65.4L180.8 93L179.2 95.8H214.4L212.8 93ZM196.8 93H184.1L196.8 71.1L209.5 93H196.8Z" fill="black"/>
</g>
<defs>
<clipPath id="clip0_2_195">
<rect width="224.1" height="112.4" fill="white"/>
</clipPath>
</defs>
</svg>
