<svg width="286" height="94" viewBox="0 0 286 94" fill="none" xmlns="http://www.w3.org/2000/svg">
<g clip-path="url(#clip0_2_240)">
<path d="M47 92.5C38.001 92.5 29.204 89.8315 21.7216 84.8319C14.2391 79.8323 8.40729 72.7261 4.9635 64.4121C1.51971 56.098 0.618663 46.9495 2.37429 38.1234C4.12992 29.2972 8.46337 21.1899 14.8267 14.8266C21.19 8.46334 29.2973 4.12989 38.1234 2.37426C46.9495 0.618632 56.0981 1.51968 64.4121 4.96347C72.7262 8.40726 79.8323 14.2391 84.8319 21.7215C89.8315 29.204 92.5 38.0009 92.5 47C92.4894 59.0641 87.6923 70.631 79.1617 79.1617C70.6311 87.6923 59.0641 92.4894 47 92.5Z" fill="#111111"/>
<path d="M47 3.00003C55.7024 3.00003 64.2094 5.58058 71.4451 10.4154C78.6809 15.2501 84.3205 22.122 87.6507 30.162C90.981 38.2019 91.8523 47.0488 90.1546 55.584C88.4568 64.1192 84.2662 71.9592 78.1127 78.1127C71.9592 84.2662 64.1192 88.4568 55.584 90.1546C47.0488 91.8523 38.2019 90.981 30.1619 87.6507C22.122 84.3205 15.2501 78.6809 10.4154 71.4451C5.58058 64.2094 3.00002 55.7024 3.00002 47C3.00002 35.3305 7.63572 24.1389 15.8873 15.8873C24.1389 7.63573 35.3305 3.00003 47 3.00003ZM47 2.66549e-05C37.7043 2.66549e-05 28.6173 2.75653 20.8882 7.92095C13.1591 13.0854 7.135 20.4258 3.57768 29.0139C0.0203645 37.602 -0.910392 47.0522 0.903113 56.1693C2.71662 65.2864 7.19293 73.661 13.766 80.234C20.3391 86.8071 28.7137 91.2834 37.8308 93.0969C46.9479 94.9104 56.398 93.9797 64.9861 90.4224C73.5743 86.865 80.9147 80.8409 86.0791 73.1118C91.2435 65.3827 94 56.2957 94 47C94.0066 40.826 92.7954 34.7114 90.4358 29.0061C88.0761 23.3009 84.6144 18.117 80.2487 13.7513C75.883 9.38567 70.6992 5.92393 64.9939 3.56429C59.2887 1.20465 53.174 -0.00655191 47 2.66549e-05Z" fill="#050505"/>
<path d="M47 74.3C62.0773 74.3 74.3 62.0774 74.3 47C74.3 31.9226 62.0773 19.7 47 19.7C31.9226 19.7 19.7 31.9226 19.7 47C19.7 62.0774 31.9226 74.3 47 74.3Z" fill="#3A3A3A"/>
<path d="M143 92.5C134.001 92.5 125.204 89.8315 117.722 84.8319C110.239 79.8323 104.407 72.7261 100.964 64.4121C97.5197 56.098 96.6187 46.9495 98.3743 38.1234C100.13 29.2972 104.463 21.1899 110.827 14.8266C117.19 8.46334 125.297 4.12989 134.123 2.37426C142.95 0.618632 152.098 1.51968 160.412 4.96347C168.726 8.40726 175.832 14.2391 180.832 21.7215C185.831 29.204 188.5 38.0009 188.5 47C188.489 59.0641 183.692 70.631 175.162 79.1617C166.631 87.6923 155.064 92.4894 143 92.5Z" fill="white"/>
<path d="M143 3C151.702 3 160.209 5.58055 167.445 10.4153C174.681 15.2501 180.32 22.122 183.651 30.1619C186.981 38.2019 187.852 47.0488 186.155 55.584C184.457 64.1191 180.266 71.9592 174.113 78.1127C167.959 84.2662 160.119 88.4568 151.584 90.1545C143.049 91.8523 134.202 90.9809 126.162 87.6507C118.122 84.3204 111.25 78.6808 106.415 71.4451C101.581 64.2093 99 55.7024 99 47C99 35.3305 103.636 24.1389 111.887 15.8873C120.139 7.6357 131.33 3 143 3ZM143 -3.86268e-06C133.704 -3.86268e-06 124.617 2.7565 116.888 7.92092C109.159 13.0854 103.135 20.4257 99.5777 29.0139C96.0204 37.602 95.0896 47.0521 96.9031 56.1692C98.7166 65.2864 103.193 73.6609 109.766 80.234C116.339 86.8071 124.714 91.2834 133.831 93.0969C142.948 94.9104 152.398 93.9797 160.986 90.4223C169.574 86.865 176.915 80.8409 182.079 73.1118C187.244 65.3827 190 56.2957 190 47C190.007 40.826 188.795 34.7114 186.436 29.0061C184.076 23.3008 180.614 18.117 176.249 13.7513C171.883 9.38564 166.699 5.9239 160.994 3.56426C155.289 1.20462 149.174 -0.00658243 143 -3.86268e-06Z" fill="white"/>
<path d="M143 74.3C158.077 74.3 170.3 62.0774 170.3 47C170.3 31.9226 158.077 19.7 143 19.7C127.923 19.7 115.7 31.9226 115.7 47C115.7 62.0774 127.923 74.3 143 74.3Z" fill="white"/>
<path d="M125.1 33.5H129.7V55.9H143.1V59.9H125.1V33.5Z" fill="black"/>
<path d="M151.9 44.8C154.7 44.9 157.6 43.9 157.6 40.7C157.6 40.1882 157.494 39.682 157.29 39.213C157.085 38.7441 156.785 38.3226 156.409 37.9751C156.034 37.6276 155.59 37.3616 155.107 37.1938C154.623 37.026 154.11 36.96 153.6 37C150.7 37 149.2 39.6 149.3 42.3H145.1C145.3 37.3 148.5 33.5 153.7 33.5C157.7 33.5 161.9 35.8 161.9 40.4C161.9 43 160.8 45.1 158.2 45.9V46C161.2 46.6 162.9 49.1 162.9 52.5C162.9 57.4 158.6 60.4 153.7 60.4C147.7 60.4 144.7 56.8 144.6 51.4H148.8C148.7 54.5 150.4 56.9 153.7 56.9C156.5 56.9 158.7 55.2 158.7 52.3C158.7 48.3 155.3 47.8 151.9 47.9V44.8Z" fill="black"/>
<path d="M239 92.5C230.001 92.5 221.204 89.8315 213.722 84.8319C206.239 79.8323 200.407 72.7261 196.964 64.4121C193.52 56.098 192.619 46.9495 194.374 38.1234C196.13 29.2972 200.463 21.1899 206.827 14.8266C213.19 8.46334 221.297 4.12989 230.123 2.37426C238.95 0.618632 248.098 1.51968 256.412 4.96347C264.726 8.40726 271.832 14.2391 276.832 21.7215C281.832 29.204 284.5 38.0009 284.5 47C284.489 59.0641 279.692 70.631 271.162 79.1617C262.631 87.6923 251.064 92.4894 239 92.5Z" fill="white"/>
<path d="M239 3C247.702 3 256.209 5.58055 263.445 10.4153C270.681 15.2501 276.32 22.122 279.651 30.1619C282.981 38.2019 283.852 47.0488 282.155 55.584C280.457 64.1191 276.266 71.9592 270.113 78.1127C263.959 84.2662 256.119 88.4568 247.584 90.1545C239.049 91.8523 230.202 90.9809 222.162 87.6507C214.122 84.3204 207.25 78.6808 202.415 71.4451C197.581 64.2093 195 55.7024 195 47C195 35.3305 199.636 24.1389 207.887 15.8873C216.139 7.6357 227.33 3 239 3ZM239 -3.86268e-06C229.704 -3.86268e-06 220.617 2.7565 212.888 7.92092C205.159 13.0854 199.135 20.4257 195.578 29.0139C192.02 37.602 191.09 47.0521 192.903 56.1692C194.717 65.2864 199.193 73.6609 205.766 80.234C212.339 86.8071 220.714 91.2834 229.831 93.0969C238.948 94.9104 248.398 93.9797 256.986 90.4223C265.574 86.865 272.915 80.8409 278.079 73.1118C283.244 65.3827 286 56.2957 286 47C286.007 40.826 284.795 34.7114 282.436 29.0061C280.076 23.3008 276.614 18.117 272.249 13.7513C267.883 9.38564 262.699 5.9239 256.994 3.56426C251.289 1.20462 245.174 -0.00658243 239 -3.86268e-06Z" fill="white"/>
<path d="M239 74.3C254.077 74.3 266.3 62.0774 266.3 47C266.3 31.9226 254.077 19.7 239 19.7C223.923 19.7 211.7 31.9226 211.7 47C211.7 62.0774 223.923 74.3 239 74.3Z" fill="white"/>
<path d="M218.7 33.5H231.3C237.1 33.5 240 36.2 240 40.6C240 45.7 236.5 47 235.6 47.3V47.4C237.2 47.6 239.5 48.8 239.5 53C239.5 56.1 239.9 58.9 240.9 60H235.9C235.315 58.7884 235.072 57.4395 235.2 56.1C235.2 51.3 234.2 49.1 229.9 49.1H223.1V60H218.5V33.5H218.7ZM223.3 45.6H230.9C233.9 45.6 235.4 44.2 235.4 41.4C235.4 38 233.2 37.4 230.8 37.4H223.3V45.6Z" fill="black"/>
<path d="M250.3 44.8C253.1 44.9 256 43.9 256 40.7C256 40.1882 255.894 39.682 255.69 39.213C255.485 38.7441 255.185 38.3226 254.809 37.9751C254.434 37.6276 253.99 37.3616 253.507 37.1938C253.023 37.026 252.51 36.96 252 37C249.1 37 247.6 39.6 247.7 42.3H243.5C243.7 37.3 246.9 33.5 252.1 33.5C256.1 33.5 260.3 35.8 260.3 40.4C260.3 43 259.2 45.1 256.6 45.9V46C259.6 46.6 261.3 49.1 261.3 52.5C261.3 57.4 257 60.4 252.1 60.4C246.1 60.4 243.1 56.8 243 51.4H247.2C247.1 54.5 248.8 56.9 252.1 56.9C254.9 56.9 257.1 55.2 257.1 52.3C257.1 48.3 253.7 47.8 250.3 47.9V44.8Z" fill="black"/>
</g>
<defs>
<clipPath id="clip0_2_240">
<rect width="286" height="94" fill="white"/>
</clipPath>
</defs>
</svg>
