<svg width="201" height="91" viewBox="0 0 201 91" fill="none" xmlns="http://www.w3.org/2000/svg">
<g clip-path="url(#clip0_2_263)">
<path d="M200 90.8C200 90.8 167.3 87.6 149.4 87.6C131.5 87.6 101.1 90 101.1 90C101.1 90 104.2 45.3 105.9 38C107.6 30.7 113.6 16.7 122.8 10.1C132 3.5 134.8 0 145.6 0C156.4 0 171 6.4 180.2 21.4C189.4 36.4 200 90.8 200 90.8Z" fill="white"/>
<path d="M101.6 83.2C101.6 83.2 127.7 78.8 150.6 78.8C173.5 78.8 198.5 83.2 198.5 83.2C199.5 87.9 200.1 90.8 200.1 90.8C200.1 90.8 167.4 87.6 149.5 87.6C131.6 87.6 101.2 90 101.2 90C101.2 90 101.2 87.3 101.6 83.2Z" fill="#DBDBDB"/>
<g opacity="0.08">
<path d="M151.6 65.7L148.4 68.3C147.187 69.4923 146.472 71.1007 146.4 72.8H156.2V70.2H150C150.557 69.4245 151.273 68.7767 152.1 68.3C153.092 67.7274 154.001 67.0207 154.8 66.2C155.641 65.308 156.107 64.1262 156.1 62.9C156.123 62.2809 156.01 61.6643 155.768 61.094C155.526 60.5236 155.161 60.0136 154.7 59.6C153.723 58.7786 152.475 58.3507 151.2 58.4C148.1 58.4 146.5 60.1 146.5 63.4H149.2C149.2 61.6 149.9 60.7 151.3 60.7C151.579 60.6707 151.86 60.7057 152.123 60.8025C152.386 60.8992 152.624 61.055 152.817 61.2579C153.01 61.4608 153.154 61.7053 153.238 61.9727C153.322 62.2401 153.343 62.5231 153.3 62.8C153.261 63.3821 153.087 63.9472 152.792 64.4506C152.497 64.9539 152.089 65.3817 151.6 65.7Z" fill="black"/>
<path d="M134 67.2H137C138.5 67.2 139.3 67.8 139.4 69.1C139.5 70.4 139.6 71.6 139.7 72.9H143V72.5C142.5 72.3 142.3 71.8 142.3 71C142.295 70.7299 142.328 70.4605 142.4 70.2V69.5C142.477 68.8043 142.348 68.1012 142.028 67.4787C141.707 66.8561 141.211 66.3418 140.6 66C141.297 65.7659 141.895 65.3021 142.294 64.6846C142.694 64.067 142.872 63.3321 142.8 62.6C142.84 62.0323 142.743 61.4632 142.517 60.9409C142.291 60.4187 141.942 59.9587 141.5 59.6C140.592 58.8863 139.453 58.5305 138.3 58.6H131V72.8H134V67.2ZM134 61H137.7C139.1 61 139.8 61.6 139.8 62.9C139.8 64.2 139 64.8 137.5 64.8H134V61Z" fill="black"/>
</g>
<path d="M0.0999756 90.8C0.0999756 90.8 32.8 87.6 50.7 87.6C68.6 87.6 99 90 99 90C99 90 95.9 45.3 94.2 38C92.5 30.7 86.5 16.7 77.3 10.1C68.1 3.5 65.3 0 54.5 0C43.7 0 29.1 6.4 19.9 21.4C10.7 36.4 0.0999756 90.8 0.0999756 90.8Z" fill="white"/>
<path d="M98.5 83.2C98.5 83.2 72.4 78.8 49.5 78.8C26.6 78.8 1.6 83.2 1.6 83.2C0.6 87.9 0 90.8 0 90.8C0 90.8 32.7 87.6 50.6 87.6C68.5 87.6 98.9 90 98.9 90C98.9 90 98.9 87.3 98.5 83.2Z" fill="#DBDBDB"/>
<g opacity="0.08">
<path d="M64.6 65.7L61.4 68.3C60.1871 69.4923 59.4723 71.1007 59.4 72.8H69.2V70.2H63C63.5569 69.4245 64.2728 68.7767 65.1 68.3C66.0922 67.7274 67.0008 67.0207 67.8 66.2C68.6414 65.308 69.107 64.1262 69.1 62.9C69.1232 62.2809 69.0098 61.6643 68.7678 61.094C68.5259 60.5236 68.1613 60.0136 67.7 59.6C66.7232 58.7786 65.4753 58.3507 64.2 58.4C61.1 58.4 59.5 60.1 59.5 63.4H62.2C62.2 61.6 62.9 60.7 64.3 60.7C64.5787 60.6707 64.8603 60.7057 65.1233 60.8025C65.3863 60.8992 65.6235 61.055 65.8168 61.2579C66.01 61.4608 66.1541 61.7053 66.2378 61.9727C66.3216 62.2401 66.3429 62.5231 66.3 62.8C66.2828 63.3872 66.1181 63.9607 65.821 64.4675C65.5239 64.9743 65.104 65.3981 64.6 65.7Z" fill="black"/>
<path d="M56.1 70.2H49V58.5H46V72.8H56.1V70.2Z" fill="black"/>
</g>
</g>
<defs>
<clipPath id="clip0_2_263">
<rect width="200.1" height="90.8" fill="white"/>
</clipPath>
</defs>
</svg>
